<?xml version="1.0" encoding="UTF-8" standalone="no"?>
<!DOCTYPE svg PUBLIC "-//W3C//DTD SVG 1.1//EN" "http://www.w3.org/Graphics/SVG/1.1/DTD/svg11.dtd">
<svg width="100%" height="100%" viewBox="0 0 254 254" version="1.1" xmlns="http://www.w3.org/2000/svg" xmlns:xlink="http://www.w3.org/1999/xlink" xml:space="preserve" xmlns:serif="http://www.serif.com/" style="fill-rule:evenodd;clip-rule:evenodd;stroke-linejoin:round;stroke-miterlimit:2;">
    <g transform="matrix(1,0,0,1,-287,-167)">
        <path d="M414,167C484.093,167 541,223.907 541,294C541,364.093 484.093,421 414,421C343.907,421 287,364.093 287,294C287,223.907 343.907,167 414,167ZM414,180.5C476.642,180.5 527.5,231.358 527.5,294C527.5,356.642 476.642,407.5 414,407.5C351.358,407.5 300.5,356.642 300.5,294C300.5,231.358 351.358,180.5 414,180.5Z" style="fill:rgb(235,235,235);"/>
    </g>
    <g transform="matrix(1,0,0,1,-287,-167)">
        <g transform="matrix(6.12323e-17,1,-1,6.12323e-17,708,-120)">
            <path d="M414,195.25C468.502,195.25 512.75,239.498 512.75,294C512.75,348.502 468.502,392.75 414,392.75C359.498,392.75 315.25,348.502 315.25,294C315.25,239.498 359.498,195.25 414,195.25ZM471.609,289.683C473.144,290.579 474.087,292.223 474.087,294C474.087,295.777 473.144,297.421 471.609,298.317C452.986,309.196 404.286,337.645 385.522,348.606C383.976,349.509 382.064,349.517 380.511,348.625C378.958,347.734 378,346.079 378,344.289L378,243.711C378,241.921 378.958,240.266 380.511,239.375C382.064,238.483 383.976,238.491 385.522,239.394C404.286,250.355 452.986,278.804 471.609,289.683Z" style="fill:rgb(235,235,235);"/>
        </g>
    </g>
    <g transform="matrix(1,0,0,1,-287,-167)">
        <g transform="matrix(-1,-1.22465e-16,1.22465e-16,-1,541,378)">
            <path d="M127,77L153,121L101,121L127,77Z" style="fill:rgb(235,235,235);"/>
        </g>
    </g>
</svg>
