<?xml version="1.0" encoding="UTF-8" standalone="no"?>
<!DOCTYPE svg PUBLIC "-//W3C//DTD SVG 1.1//EN" "http://www.w3.org/Graphics/SVG/1.1/DTD/svg11.dtd">
<svg width="100%" height="100%" viewBox="0 0 254 254" version="1.1" xmlns="http://www.w3.org/2000/svg" xmlns:xlink="http://www.w3.org/1999/xlink" xml:space="preserve" xmlns:serif="http://www.serif.com/" style="fill-rule:evenodd;clip-rule:evenodd;stroke-linejoin:round;stroke-miterlimit:2;">
    <g transform="matrix(1,0,0,1,-287,-167)">
        <path d="M414,167C484.093,167 541,223.907 541,294C541,364.093 484.093,421 414,421C343.907,421 287,364.093 287,294C287,223.907 343.907,167 414,167ZM414,180.5C476.642,180.5 527.5,231.358 527.5,294C527.5,356.642 476.642,407.5 414,407.5C351.358,407.5 300.5,356.642 300.5,294C300.5,231.358 351.358,180.5 414,180.5ZM414,195.25C468.502,195.25 512.75,239.498 512.75,294C512.75,348.502 468.502,392.75 414,392.75C359.498,392.75 315.25,348.502 315.25,294C315.25,239.498 359.498,195.25 414,195.25ZM418.891,306.552L397.816,306.552L397.816,338.708C397.816,343.305 396.731,346.792 394.561,349.168C392.392,351.544 389.654,352.732 386.348,352.732C382.887,352.732 380.098,351.557 377.98,349.207C375.862,346.856 374.803,343.408 374.803,338.863L374.803,251.307C374.803,246.245 375.966,242.629 378.29,240.459C380.615,238.29 384.308,237.205 389.37,237.205L418.891,237.205C427.621,237.205 434.336,237.877 439.037,239.22C443.686,240.511 447.702,242.655 451.085,245.651C454.469,248.647 457.038,252.314 458.795,256.653C460.551,260.992 461.429,265.874 461.429,271.298C461.429,282.868 457.865,291.637 450.736,297.603C443.608,303.569 432.993,306.552 418.891,306.552ZM413.312,254.484L397.816,254.484L397.816,289.196L413.312,289.196C418.736,289.196 423.269,288.628 426.911,287.491C430.552,286.355 433.329,284.495 435.24,281.913C437.151,279.33 438.107,275.946 438.107,271.762C438.107,266.752 436.635,262.671 433.69,259.52C430.384,256.163 423.592,254.484 413.312,254.484Z" style="fill:rgb(235,235,235);"/>
    </g>
</svg>
